<svg width="122" height="40" viewBox="0 0 122 40" fill="none" xmlns="http://www.w3.org/2000/svg">
<path d="M66.9428 17.0497C67.0208 17.0497 67.099 17.0497 67.1776 17.0497C70.5342 17.1334 72.8469 19.7959 72.5094 23.7148L72.486 23.9562H62.2661C62.254 24.6194 62.3751 25.2784 62.6223 25.8939C62.8694 26.5094 63.2376 27.069 63.7049 27.5394C64.1722 28.0098 64.7292 28.3815 65.3427 28.6324C65.9562 28.8833 66.6139 29.0083 67.2766 29C67.363 29.0036 67.4491 29.0054 67.5349 29.0054C68.7432 28.9898 69.9314 28.6945 71.0066 28.1426L71.2541 28.0147L71.749 29.2144C70.4524 29.9277 68.9991 30.3078 67.5196 30.3204C67.4158 30.3204 67.3111 30.3183 67.2055 30.3141C62.9311 30.1754 60.7417 26.7924 60.8794 23.1798C60.8625 22.3753 61.0073 21.5756 61.3052 20.8282C61.6032 20.0808 62.0482 19.4011 62.6138 18.8292C63.1794 18.2574 63.8541 17.8052 64.5977 17.4995C65.3414 17.1938 66.1389 17.0408 66.9428 17.0497ZM31.1115 10.0144V18.6394C32.2718 17.5992 33.7724 17.0203 35.3301 17.0119C38.1611 17.0119 40.8931 18.9537 40.8931 23.6373C40.8931 28.4776 37.8218 30.3024 34.5373 30.3024C32.8359 30.2886 31.1674 29.8317 29.696 28.9766V10.0144H31.1115ZM116.466 12.9128V17.2253H120.684V18.4394H116.466V25.4648C116.466 27.5364 117.343 28.8775 119.198 28.9487C120.024 28.9734 120.844 28.8021 121.591 28.4488L122.001 29.7098C121.102 30.0782 120.141 30.272 119.17 30.2808C116.877 30.2808 115.05 28.8676 115.05 25.5684V18.443H112.772V17.2289H115.05V12.9164L116.466 12.9128ZM94.2567 17.0254C97.5404 17.0254 100.386 19.4815 100.386 23.6364C100.386 27.8913 97.526 30.2763 94.2567 30.2763C90.5906 30.2763 88.1277 27.304 88.1277 23.6364C88.1277 19.7382 90.8453 17.0254 94.2567 17.0254ZM49.4429 17.2253V25.0613C49.4429 28.1173 50.9295 28.9451 52.4125 28.9451C54.0826 28.9451 55.6115 27.8886 56.8003 26.1322V17.2217H58.2221V30.0763H56.803V27.5913C56.2692 28.3936 55.551 29.056 54.7086 29.523C53.8662 29.99 52.9242 30.248 51.9616 30.2754C49.9513 30.2754 48.0264 29.1189 48.0264 25.2063V17.2244L49.4429 17.2253ZM107.166 17.0542C108.404 17.0685 109.619 17.3874 110.705 17.9828L110.165 19.1105C109.255 18.6194 108.239 18.3596 107.206 18.3539C105.097 18.3539 104.146 19.396 104.146 20.4813C104.146 21.8666 105.703 22.38 107.671 23.1942C110.742 24.4083 111.394 25.7936 111.394 26.9771C111.394 28.9901 109.526 30.261 107.048 30.261C105.618 30.2444 104.218 29.8397 102.999 29.0901L103.607 27.8624C104.608 28.5512 105.79 28.9273 107.004 28.9433C108.335 28.9433 109.991 28.3866 109.974 27.0302C109.974 25.8737 108.756 24.9739 106.804 24.2029C104.638 23.332 102.742 22.5322 102.742 20.4759C102.742 18.4196 104.66 17.0533 107.165 17.0533L107.166 17.0542ZM77.1015 10.0144V19.7418C77.5919 18.9351 78.2761 18.264 79.0918 17.7896C79.9075 17.3151 80.8288 17.0524 81.7718 17.0254C84.3194 17.0254 85.8213 18.9672 85.8213 21.8377V30.0763H84.4193V22.1368C84.4193 19.3527 83.0038 18.3674 81.4749 18.3539C79.6202 18.3395 77.9654 19.795 77.1006 21.2523V30.079H75.6851V10.0144H77.1015ZM44.7239 10V30.0763H43.3651V10H44.7239ZM35.2023 18.3242C34.4197 18.3576 33.6524 18.5523 32.9485 18.8962C32.2446 19.2401 31.6192 19.7258 31.1115 20.3228V28.1939C32.1426 28.7352 33.2875 29.0238 34.4518 29.036C37.056 29.036 39.4767 27.4941 39.4767 23.6526C39.4632 20.2678 37.5942 18.3242 35.2023 18.3242ZM94.2567 18.353C91.2134 18.353 89.5576 20.7848 89.5576 23.6364C89.5576 26.4781 91.1999 28.9505 94.2567 28.9505C97.2155 28.9505 98.9703 26.4655 98.9703 23.6364C98.9703 20.7803 97.229 18.353 94.2567 18.353ZM66.887 18.3359C65.7335 18.3371 64.6233 18.7757 63.78 19.5633C62.9366 20.351 62.4227 21.4291 62.3417 22.5808L62.3237 22.7934H71.1704C71.2031 22.2276 71.1214 21.6611 70.9302 21.1277C70.739 20.5943 70.4422 20.1051 70.0577 19.6891C69.6732 19.2732 69.2087 18.9392 68.6922 18.7072C68.1757 18.4751 67.6177 18.3497 67.0517 18.3386C66.9959 18.3368 66.9407 18.3359 66.8861 18.3359H66.887Z" fill="#196BDE"/>
<path d="M21.3919 24.5891V30.6165H15.4158V24.5891H21.3919ZM13.6826 24.5891V30.6165H7.70655V24.5891H13.6826ZM5.97339 24.5891V30.6165H0V24.5891H5.97339ZM21.3919 16.7946V22.822H15.4158V16.7946H21.3919ZM13.6826 16.7946V22.822H7.70655V16.7946H13.6826ZM5.97339 16.7946V22.822H0V16.7946H5.97339ZM21.3919 9V15.0265H15.4158V9H21.3919ZM13.6781 9V15.0265H7.70655V9H13.6781ZM5.97339 9V15.0265H0V9H5.97339Z" fill="#196BDE"/>
</svg>
